<svg xmlns="http://www.w3.org/2000/svg" viewBox="0 0 32 32">
  <path d="M19 4L19 8C19 9.113281 19.476563 10.117188 20.21875 10.84375C18.886719 11.746094 18 13.28125 18 15L18 20.625L20 21.625L20 28L26 28L26 21.625L28 20.625L28 15C28 13.28125 27.113281 11.746094 25.78125 10.84375C26.523438 10.117188 27 9.113281 27 8L27 4 Z M 21 6L25 6L25 8C25 9.117188 24.117188 10 23 10C21.882813 10 21 9.117188 21 8 Z M 4 8L4 10L10.5 10C10.945313 10 11.339844 10.292969 11.46875 10.71875L12.75 15L4 15L4 17L13.34375 17L14 19.1875L14 25L4 25L4 27L11.65625 27L12 28L15 28C15.550781 28 16 27.550781 16 27L16 26.15625C16.003906 26.105469 16.003906 26.050781 16 26L16 19C16.003906 18.90625 15.992188 18.808594 15.96875 18.71875L15.34375 16.59375L17.3125 15.9375L16.6875 14.0625L14.75 14.71875L13.375 10.125C12.996094 8.859375 11.820313 8 10.5 8 Z M 21.5625 12.375L23 16L24.4375 12.375C25.371094 12.882813 26 13.855469 26 15L26 19.375L24 20.375L24 26L22 26L22 20.375L20 19.375L20 15C20 13.855469 20.628906 12.882813 21.5625 12.375 Z M 11.5 18C10.671875 18 10 18.671875 10 19.5C10 20.328125 10.671875 21 11.5 21C12.328125 21 13 20.328125 13 19.5C13 18.671875 12.328125 18 11.5 18 Z M 4 21L4 23L6.65625 23L7.09375 24L9.25 24L8 21Z" fill="#171700" />
</svg>