<svg xmlns="http://www.w3.org/2000/svg" viewBox="0 0 50 50">
  <path d="M2.71875 10C2.0625 10.085938 1.605469 10.765625 0.8125 16.1875C0.421875 18.84375 0 22.5625 0 25C0 27.4375 0.421875 31.15625 0.8125 33.8125C1.71875 40.011719 2.167969 40 3 40L3.15625 40C3.570313 39.9375 12.628906 38.464844 19.15625 33.09375C17.898438 32.296875 17.222656 30.441406 16.875 28.6875C14.957031 29.304688 12.273438 30 10 30C9.445313 30 9 29.554688 9 29C9 28.445313 9.445313 28 10 28C12.132813 28 14.792969 27.25 16.59375 26.65625C16.503906 25.699219 16.5 25.023438 16.5 25C16.5 24.976563 16.503906 24.300781 16.59375 23.34375C14.792969 22.75 12.132813 22 10 22C9.445313 22 9 21.554688 9 21C9 20.445313 9.445313 20 10 20C12.273438 20 14.957031 20.695313 16.875 21.3125C17.21875 19.570313 17.886719 17.710938 19.125 16.90625C13.335938 12.429688 3.664063 10.136719 3.21875 10.03125L3 10C2.894531 10 2.8125 9.988281 2.71875 10 Z M 47 10L46.78125 10.03125C46.335938 10.136719 36.664063 12.429688 30.875 16.90625C32.113281 17.710938 32.78125 19.570313 33.125 21.3125C35.042969 20.695313 37.726563 20 40 20C40.554688 20 41 20.445313 41 21C41 21.554688 40.554688 22 40 22C37.867188 22 35.207031 22.75 33.40625 23.34375C33.496094 24.300781 33.5 24.976563 33.5 25C33.5 25.023438 33.496094 25.699219 33.40625 26.65625C35.207031 27.25 37.867188 28 40 28C40.554688 28 41 28.445313 41 29C41 29.554688 40.554688 30 40 30C37.726563 30 35.042969 29.304688 33.125 28.6875C32.777344 30.441406 32.101563 32.300781 30.84375 33.09375C37.371094 38.464844 46.429688 39.9375 46.84375 40L47 40C47.832031 40 48.28125 40.011719 49.1875 33.8125C49.578125 31.15625 50 27.4375 50 25C50 22.5625 49.578125 18.84375 49.1875 16.1875C48.28125 9.988281 47.832031 10 47 10 Z M 20.5 18C18.753906 18 18 22.636719 18 25C18 27.363281 18.753906 32 20.5 32L29.5 32C31.246094 32 32 27.363281 32 25C32 22.636719 31.246094 18 29.5 18Z" fill="#171700" />
</svg>